<?xml version="1.0" encoding="UTF-8"?>
<svg id="Layer_1" data-name="Layer 1" xmlns="http://www.w3.org/2000/svg" viewBox="0 0 595.28 595.28">
  <defs>
    <style>
      .cls-1 {
        fill: #fff;
      }

      .cls-1, .cls-2 {
        stroke-width: 0px;
      }

      .cls-2 {
        fill: #00e676;
      }
    </style>
  </defs>
  <path class="cls-2" d="M442.31,44.5H152.96c-59.8,0-108.46,48.65-108.46,108.46v289.35c0,59.81,48.66,108.46,108.46,108.46h289.35c59.81,0,108.46-48.65,108.46-108.46V152.96c0-59.81-48.65-108.46-108.46-108.46ZM517.77,442.31c0,41.61-33.85,75.46-75.46,75.46H152.96c-41.61,0-75.46-33.85-75.46-75.46V152.96c0-41.61,33.85-75.46,75.46-75.46h289.35c41.61,0,75.46,33.85,75.46,75.46v289.35Z"/>
  <g>
    <g>
      <path class="cls-2" d="M193.16,299.25c0-.6-.02-1.19-.02-1.79-13.12,9.32-25.12,20.18-35.91,32.7-16.82,19.51-29.33,41.49-36.65,66.37-.16.53-.33,1.06-.47,1.6-.12.47-.21.94-.31,1.42.24-.15.35-.32.42-.51,5.33-14.08,13.21-26.57,23.33-37.62,15.08-16.45,33.05-28.27,53.39-36.24-2.3-8.28-3.61-16.97-3.78-25.93ZM209.56,232.52c-30.2,9.04-57.3,23.77-80.51,45.45-20.01,18.7-35.01,40.8-43.87,66.98-3.8,11.21-6.2,22.73-7.13,34.56-.16,2.02-.36,4.03-.55,6.05-.02.18-.03.37-.05.55v10.91c.02.11.03.22.05.33.1.58.21,1.16.24,1.75.48,10.32,2.11,20.45,4.79,30.42,6.72,24.9,19.24,46.51,36.38,65.5.95,1.04,1.91,2.07,2.89,3.08.97,1,1.98,1.96,2.98,2.93-5.92-8.87-10.74-18.3-15.22-27.96-12.54-26.97-17.53-55.16-14.18-84.81,1.41-12.49,4.31-24.62,8.72-36.36,11.01-29.32,29.15-53.42,53.01-73.23,14.83-12.31,30.9-22.14,48.06-29.75.05-.1.11-.21.16-.31.1-.18.2-.37.3-.54,3.43-6.37,7.51-12.34,12.14-17.82-2.75.69-5.48,1.45-8.21,2.27Z"/>
      <path class="cls-2" d="M195.8,274.16c-.06.23-.11.47-.16.7-.04.02-.08.04-.12.06-.99,4.56-1.68,9.22-2.05,13.98-1.16.78-2.31,1.58-3.46,2.39-24.67,17.45-44.93,39.05-59.97,65.5-8.89,15.63-15.38,32.21-19.09,49.87-.09.43-.22.84-.44,1.65-.18-11.78,1.03-22.99,3.67-34.02,5.83-24.35,17.35-45.71,33.94-64.2,9.44-10.52,20.54-19.17,32.34-26.87,5-3.27,10.12-6.29,15.34-9.06Z"/>
    </g>
    <g>
      <path class="cls-2" d="M517.77,197.93c-.09-.58-.2-1.17-.23-1.76-.48-10.32-2.11-20.45-4.8-30.42-6.71-24.9-19.24-46.51-36.38-65.5-.94-1.05-1.9-2.07-2.88-3.08-.98-1-1.99-1.96-2.98-2.93,5.92,8.87,10.73,18.3,15.22,27.96,12.53,26.97,17.53,55.16,14.18,84.81-1.41,12.49-4.32,24.62-8.73,36.36-11.01,29.32-29.15,53.42-53,73.22-14.81,12.29-30.85,22.12-47.97,29.72-3.5,6.67-7.72,12.94-12.56,18.68,2.7-.69,5.39-1.44,8.07-2.24,30.21-9.04,57.31-23.77,80.51-45.45,20.01-18.7,35.02-40.8,43.88-66.98,3.79-11.21,6.2-22.73,7.12-34.56.16-2.02.36-4.03.55-6.05.02-.18.03-.37.05-.55v-10.91c-.02-.11-.03-.21-.05-.32ZM475.05,196.23c-5.33,14.08-13.2,26.57-23.32,37.62-15.06,16.42-33,28.23-53.29,36.2.12.4.23.8.33,1.2.03.09.05.18.07.27.11.41.2.81.3,1.22.68,2.81,1.24,5.67,1.7,8.59.54,3.43.9,6.85,1.1,10.24.03.4.05.82.06,1.23.05.76.07,1.53.09,2.3,0,.34.02.67.03,1.01.01.51.01,1.02.01,1.53h0v.17c13.12-9.31,25.12-20.18,35.91-32.7,16.83-19.51,29.34-41.49,36.66-66.37.15-.53.32-1.06.46-1.6.12-.47.21-.95.32-1.42-.25.15-.36.32-.43.51Z"/>
      <path class="cls-2" d="M484.77,186.96c.17,11.78-1.04,22.99-3.68,34.02-5.82,24.35-17.34,45.71-33.93,64.2-9.44,10.52-20.55,19.17-32.34,26.87-4.99,3.26-10.09,6.27-15.3,9.03,1.09-4.79,1.85-9.69,2.25-14.68,1.18-.79,2.34-1.6,3.5-2.42,24.67-17.45,44.92-39.05,59.96-65.5,8.89-15.63,15.38-32.21,19.09-49.87.09-.43.23-.84.45-1.65Z"/>
    </g>
  </g>
  <g>
    <path class="cls-2" d="M214.75,338.91c-.39-.53-.75-1.08-1.18-1.7-.3.24-.59.46-1.02.78-.91-1.9-1.75-3.83-2.53-5.8-.03-.09-.06-.17-.1-.26-1.09-2.78-2.05-5.62-2.86-8.46-2.4-8.39-3.62-17.1-3.62-25.92,0-6.75.72-13.49,2.14-20.05.76-3.5,1.73-7,2.9-10.41,1.52-4.46,3.42-8.85,5.62-13.06.01-.03.03-.05.04-.08.86-1.52,1.72-3.05,2.57-4.59.01-.02.03-.04.04-.07,5-8.32,11.33-15.92,18.64-22.37.05-.04.1-.08.15-.12,1.52-1.34,3.09-2.64,4.7-3.87,2.89-2.23,5.9-4.27,9.01-6.13,17.32-10.63,36.14-14.94,56.43-12.95.06,0,.11.01.17.02,5.75.5,11.38,1.52,16.84,3.03h.02c1.14.29,2.29.6,3.44.94,4.98,1.43,9.69,3.83,14.48,5.92.33.14.62.36.92.65.51.47,1.01,1.1,1.68,1.73-.98.07-1.41.1-1.98.14.53,1.13.98,2.1,1.48,3.18h-1.9c.4,1.29.76,2.45,1.16,3.73-.85-.1-1.5-.18-2.21-.27.33,1.52.62,2.86.95,4.34-.91-.16-1.58-.27-2.35-.4.18,1.69.34,3.21.52,4.79-.94-.14-1.57-.24-2.37-.37v5.12c-.91-.19-1.66-.34-2.68-.55v5.63c-1.08-.23-1.89-.4-2.74-.58-.26,2.01-.52,3.93-.78,5.87-1.06-.16-1.86-.28-2.7-.41-.4,2.16-.77,4.09-1.14,6.08-1.01-.18-1.83-.33-2.76-.5-.55,2.18-1.09,4.27-1.64,6.44-1.01-.22-1.88-.41-2.8-.61-.7,2.3-1.36,4.49-2.06,6.78-.99-.26-1.8-.47-2.79-.73-.81,2.3-1.61,4.56-2.44,6.9-1.01-.33-1.81-.6-2.72-.9-.9,2.33-1.76,4.6-2.65,6.91-1.03-.33-1.88-.61-2.76-.89-1,2.36-1.93,4.59-2.88,6.85-1.02-.38-1.81-.67-2.72-1-1.04,2.35-2.04,4.6-3.04,6.85-1.07-.46-1.83-.79-2.67-1.16-1.09,2.29-2.13,4.49-3.2,6.75-.99-.43-1.8-.78-2.68-1.15-1.13,2.27-2.21,4.42-3.3,6.61-1.03-.49-1.78-.84-2.6-1.23-1.2,2.22-2.34,4.34-3.47,6.45-.99-.52-1.72-.91-2.52-1.33-1.21,2.2-2.32,4.21-3.47,6.3-.91-.52-1.64-.94-2.49-1.42-1.19,2.05-2.33,4.03-3.53,6.1-.85-.51-1.57-.94-2.44-1.46-1.2,1.99-2.34,3.88-3.53,5.85-.83-.56-1.53-1.03-2.34-1.57-1.21,1.91-2.35,3.72-3.55,5.6-.84-.63-1.51-1.12-2.25-1.67-1.16,1.81-2.26,3.52-3.42,5.33-.77-.6-1.43-1.13-2.2-1.73-1.13,1.68-2.22,3.31-3.36,5.01-.77-.67-1.4-1.23-2.12-1.86-1.06,1.56-2.08,3.07-3.17,4.67-.76-.7-1.38-1.25-2.06-1.87-1.04,1.45-2.03,2.82-3.33,4.63-.6-.98-1.05-1.72-1.55-2.54-1.12,1.54-2,2.75-3.17,4.37-.6-.96-1.05-1.68-1.55-2.48-1.04,1.35-1.83,2.37-2.69,3.49-.69-.74-1.25-1.36-1.86-2.02-.39.52-.69.95-1.02,1.37-.35.45-.71.89-1.15,1.43-.64-.74-1.17-1.35-1.74-2.01-.62.8-1.13,1.48-1.64,2.14-.19-.1-.34-.13-.41-.23Z"/>
    <path class="cls-2" d="M218.69,346.16c-.49-1.26-1.91-1.39-2.92-2-.55-.31-.98-.78-1.08-1.62-.02-.13-.03-.27-.04-.4-.08-.75-.11-1.51-.16-2.27.22-.04.45-.07.68-.12.49.61.98,1.22,1.61,2.01.66-.84,1.21-1.55,1.84-2.36.61.76,1.1,1.37,1.69,2.11.77-.98,1.49-1.89,2.28-2.89.65.68,1.21,1.28,1.9,2.01.86-1.16,1.64-2.2,2.72-3.65.53.92.98,1.71,1.52,2.66,1.24-1.73,2.11-2.96,3.08-4.31.7.66,1.31,1.24,2.06,1.95.99-1.41,1.96-2.8,3.02-4.31.7.61,1.33,1.16,2.14,1.87,1.03-1.52,2.03-3.02,3.14-4.67.73.54,1.39,1.04,2.25,1.68,1.09-1.61,2.18-3.22,3.35-4.95.74.55,1.41,1.04,2.27,1.68,1.14-1.78,2.26-3.53,3.43-5.37.83.58,1.51,1.04,2.37,1.63,1.15-1.89,2.28-3.72,3.46-5.64.88.54,1.59.97,2.45,1.51,1.17-1.97,2.31-3.88,3.51-5.9.87.51,1.6.92,2.49,1.44,1.17-2.01,2.31-3.99,3.55-6.12.82.45,1.55.85,2.51,1.37,1.17-2.09,2.33-4.19,3.56-6.37.85.45,1.6.83,2.55,1.31,1.14-2.16,2.28-4.29,3.47-6.51.85.4,1.61.76,2.61,1.24,1.11-2.2,2.22-4.41,3.37-6.7.88.38,1.65.73,2.66,1.17,1.06-2.23,2.12-4.47,3.23-6.81.93.37,1.75.7,2.74,1.09,1.02-2.32,2.01-4.59,3.04-6.93.99.38,1.77.7,2.74,1.08.96-2.33,1.91-4.62,2.9-7,.94.33,1.73.62,2.75.98.87-2.3,1.74-4.61,2.64-7.01.94.28,1.75.52,2.8.84.8-2.33,1.58-4.59,2.4-6.98.97.29,1.78.53,2.78.84.7-2.3,1.4-4.61,2.13-7,.92.27,1.66.48,2.71.8.58-2.25,1.14-4.44,1.72-6.7.9.25,1.65.45,2.67.73.4-2.12.8-4.16,1.21-6.37.92.24,1.71.44,2.66.69.24-2,.48-3.93.73-5.96.88.15,1.64.27,2.57.43.11-1.85.21-3.61.32-5.54.88.17,1.62.32,2.45.48v-5.2c.79.17,1.47.32,2.4.52-.21-1.65-.42-3.23-.64-4.94.85.17,1.47.3,2.36.48-.33-1.51-.62-2.83-.96-4.35.69.06,1.27.12,2.15.2-.46-1.34-.86-2.49-1.32-3.84.65.08,1.18.14,2.05.24-.59-1.16-1.11-2.17-1.62-3.2,1.15-.13,2.04-.16,2.75-.04.97.15,1.64.59,2.29,1.44.31.4.61.89.94,1.49-.56-.05-1-.09-1.62-.15.48,1.15.94,2.22,1.51,3.57-.71-.13-1.22-.23-1.93-.35.36,1.33.71,2.62,1.12,4.14-.81-.18-1.4-.31-2.12-.47.27,1.54.52,3,.8,4.62-.88-.21-1.49-.35-2.24-.52.14,1.71.28,3.27.43,5.03-.86-.21-1.58-.38-2.39-.57v5.42c-.92-.22-1.71-.42-2.55-.64-.11,1.98-.22,3.86-.35,5.91-1-.3-1.69-.5-2.61-.78-.28,2.02-.56,4.03-.87,6.24-.88-.24-1.66-.45-2.63-.72-.46,2.16-.89,4.27-1.35,6.46-.96-.23-1.77-.42-2.73-.65-.59,2.26-1.15,4.41-1.75,6.72-.95-.24-1.81-.45-2.78-.7-.74,2.32-1.45,4.58-2.22,6.98-.95-.26-1.81-.5-2.78-.76-.85,2.35-1.67,4.63-2.55,7.07-.92-.3-1.72-.57-2.72-.9-.93,2.34-1.86,4.69-2.82,7.12-.94-.33-1.73-.61-2.74-.96-.98,2.33-1.96,4.6-2.98,7-.95-.33-1.78-.62-2.77-.97-1.06,2.34-2.08,4.6-3.15,6.96-.96-.4-1.73-.72-2.69-1.12-1.13,2.31-2.24,4.59-3.38,6.91-.93-.43-1.7-.79-2.63-1.22-1.16,2.27-2.29,4.49-3.46,6.78-.89-.43-1.66-.79-2.66-1.26-1.14,2.16-2.27,4.3-3.49,6.6-.9-.44-1.69-.84-2.65-1.32-1.18,2.14-2.34,4.25-3.56,6.44-.9-.5-1.63-.91-2.54-1.42-1.22,2.08-2.4,4.1-3.63,6.19-.88-.5-1.6-.92-2.51-1.43-1.19,1.98-2.34,3.88-3.56,5.9-.82-.49-1.53-.92-2.46-1.49-1.16,1.84-2.3,3.66-3.53,5.62-.81-.53-1.56-1.01-2.44-1.57-1.12,1.77-2.21,3.48-3.41,5.35-.77-.55-1.44-1.03-2.33-1.66-1.08,1.6-2.16,3.21-3.34,4.96-.76-.57-1.47-1.09-2.3-1.69-1.09,1.58-2.12,3.08-3.2,4.64-.79-.67-1.43-1.22-2.16-1.84-1.03,1.45-2.01,2.82-3.03,4.26-.78-.69-1.41-1.26-2.13-1.92-.91,1.29-1.79,2.52-2.73,3.86-.69-.66-1.31-1.25-2.06-1.96-.84,1.09-1.65,2.15-2.65,3.45-.56-.81-1.01-1.46-1.64-2.35-.91,1.17-1.57,2.03-2.45,3.16-.53-.77-1-1.45-1.58-2.3-.77.94-1.28,1.59-1.94,2.39Z"/>
    <path class="cls-2" d="M382.97,260.32c-.08-1.05-.22-2.15-.5-3.2-.21-.81-.51-1.59-.92-2.29-.74-1.27-1.49-2.53-2.25-3.79-.02-.02-.02-.03-.03-.04-1.39-2.3-2.83-4.58-4.3-6.83-.94-1.43-1.9-2.84-2.87-4.24-2.04-2.96-4.61-5.54-7.08-8.45-.07.16-.11.3-.16.43-.18.44-.3.74-.46,1.16-.47-.58-1.17-1.06-1.13-1.47.04-.58-.03-1.06-.21-1.49-.46-1.13-1.55-1.83-2.46-2.63-1.88-1.66-3.84-3.23-5.8-4.82-.79-.65-1.58-1.36-2.53-1.59-.56-.13-1.18-.11-1.89.19.49,1.11.97,2.21,1.52,3.45-.79-.19-1.3-.32-2.02-.51.48,1.54.87,2.8,1.3,4.2-.84-.19-1.38-.3-2.14-.46.34,1.68.63,3.12.94,4.67-.88-.24-1.5-.42-2.28-.64.13,1.75.25,3.34.38,5.03-.91-.2-1.58-.35-2.39-.53v5.45c-.87-.23-1.56-.42-2.35-.62-.13,2-.26,3.87-.38,5.84-1.01-.25-1.74-.44-2.62-.66-.28,2.16-.54,4.15-.81,6.26-.96-.32-1.7-.57-2.61-.87-.46,2.27-.9,4.44-1.34,6.65-.92-.27-1.71-.52-2.67-.81-.6,2.35-1.18,4.57-1.78,6.88-.98-.3-1.83-.55-2.76-.83-.76,2.5-1.48,4.81-2.2,7.17-1.02-.33-1.81-.58-2.76-.88-.89,2.47-1.75,4.84-2.6,7.2-1.03-.35-1.83-.62-2.75-.93-.96,2.47-1.85,4.79-2.76,7.15-1.01-.35-1.86-.64-2.78-.96-1.04,2.48-2.03,4.81-3.01,7.13-1.04-.4-1.83-.71-2.72-1.06-1.1,2.4-2.15,4.72-3.22,7.07-.99-.42-1.77-.75-2.69-1.13-1.14,2.37-2.25,4.66-3.36,6.94-.99-.42-1.81-.77-2.7-1.15-1.2,2.35-2.33,4.57-3.46,6.81-.99-.46-1.8-.84-2.69-1.25-1.22,2.32-2.35,4.47-3.5,6.65-.95-.46-1.75-.85-2.64-1.28-1.22,2.2-2.39,4.3-3.57,6.44-1.02-.53-1.77-.92-2.64-1.37-1.22,2.13-2.39,4.17-3.6,6.25-.89-.51-1.67-.95-2.58-1.47-1.22,2.08-2.38,4.04-3.55,6.02-.97-.58-1.68-1.01-2.54-1.52-1.2,1.96-2.33,3.81-3.49,5.7-.87-.55-1.63-1.02-2.47-1.56-1.19,1.84-2.32,3.58-3.47,5.35-.88-.59-1.57-1.06-2.41-1.61-1.14,1.75-2.2,3.38-3.29,5.06-.87-.62-1.59-1.15-2.39-1.72-1.09,1.64-2.08,3.12-3.11,4.68-.82-.62-1.52-1.16-2.34-1.78-1.04,1.5-1.98,2.88-2.94,4.28-.81-.67-1.46-1.21-2.25-1.86-.94,1.34-1.8,2.56-2.7,3.85-.81-.7-1.48-1.28-2.2-1.91-.87,1.19-1.63,2.23-2.44,3.34-.79-.7-1.4-1.26-2.1-1.88-.77.99-1.44,1.86-2.5,3.23-.53-.95-.97-1.75-1.47-2.63-.8,1.07-1.3,1.73-1.84,2.44-.66-.7-1.22-1.3-1.79-1.91-.22.08-.44.15-.66.23.1.51.09,1.11.21,1.61.05.23.12.44.25.61,1.99,2.89,4.09,5.7,6.21,8.49.62.82,1.19,1.7,2.07,2.17h.01c.46.25,1,.39,1.67.34.45-.02.95.71,1.55,1.2-.55.17-.92.28-1.42.44-.1.03-.21.06-.33.1,2.24,2.14,4.21,4.19,6.36,6.03,1.48,1.26,2.71,2.96,4.61,3.63.42.16.88.26,1.38.29.29.03.55.72.81,1.11.08.13.15.28.22.43.12.24.24.48.43.59,1.43.9,2.86,1.79,4.3,2.68,1.04.64,2.09,1.29,3.13,1.94,1.23.76,2.46,1.53,3.68,2.3.51.31.96.5,1.37.49.5-.01.92-.32,1.28-1.03.97.42,1.8.77,2.64,1.14.36-.59.72-1.19,1.2-1.98.94.4,1.86.8,2.77,1.19,1.64-2.39,1.67-2.39,4.51-1.56.63-.85,1.29-1.74,2.09-2.83,3.01,2.49,3.63-.64,5.11-2.34,3.42,2.51,3.74-1.34,5.48-2.82,2.09,1.67,3.34.51,4.15-1.44.88-2.13,2.33-1.61,3.84-.79.59-.84,1.21-1.48,1.54-2.24.91-2.14,2.29-2.64,4.28-1.49.55-.85,1.11-1.7,1.66-2.55,1.57-2.41,1.58-2.42,4.3-1.41.69-1.16,1.4-2.31,2.06-3.49.68-1.2,1.32-2.28,3.01-1.31.26.15,1.06-.27,1.36-.64.58-.69,1.1-1.48,1.44-2.32.85-2.09,2.18-2.52,4.06-1.39h0c1.17-1.96,2.33-3.91,3.51-5.89.89.3,1.63.54,2.5.83,1.23-2.04,2.43-4.05,3.61-6.02.95.29,1.69.51,2.49.76,1.22-2.15,2.4-4.21,3.57-6.27.85.29,1.58.53,2.42.81,1.21-2.2,2.38-4.33,3.56-6.49.82.3,1.49.55,2.33.86,1.18-2.26,2.34-4.46,3.51-6.71.79.31,1.45.56,2.26.87,1.17-2.31,2.32-4.57,3.48-6.84.78.32,1.38.57,2.15.89,1.12-2.35,2.22-4.63,3.33-6.95.79.33,1.38.57,2.11.87,1.06-2.39,2.1-4.72,3.14-7.06.76.32,1.34.58,2.07.89.98-2.39,1.93-4.7,2.91-7.1.67.34,1.24.62,1.95.98.87-2.37,1.71-4.63,2.57-6.98.67.37,1.17.65,1.84,1.02.74-2.29,1.44-4.45,2.16-6.7.61.35,1.1.64,1.75,1,.6-2.21,1.16-4.28,1.72-6.38.62.32,1.1.57,1.7.88.43-2.03.83-3.89,1.26-5.88.57.28,1,.49,1.58.78.32-1.96.62-3.75.92-5.6.53.3.89.51,1.42.81.19-1.79.36-3.37.52-4.95.58.14.89.21,1.37.32v-4.35c.42.04.72.07.74.07.41-1.53,1.14-2.89,1.04-4.19ZM249.65,353.83c.58-.18,1.42.47,2.5.88-5.09,2.99-5.54,3.06-6.92,1.11,1.48-.69,2.89-1.52,4.42-1.99ZM231.15,359.73c1.87.26,3.72-1.58,4.94.86-2.59,1.19-3.64,1.08-4.94-.86ZM237.77,358.6c5.18-1.97,4.75-2.01,5.6-.09-3.65,1.9-4.42,1.92-5.6.09ZM242.98,371.5c1.9.01,3.49-1.49,5.08.59-1.72.31-3.29,1.39-5.08-.59ZM249.24,370.11c2.25-.14,3.9-2.27,5.96-.24-1.85.3-3.52,2.68-5.96.24ZM255.54,353.07c-.52.21-1.42-.46-2.14-.73.11-.21.22-.42.33-.63,1.33-.74,2.71-1.39,3.97-2.23,1.26-.85,2.05-.57,2.77.89-1.62.91-3.21,1.97-4.93,2.7ZM256.71,367.31c2.51-.14,4.01-3.07,6.7-1.22-2.49,2.28-4.91,2.87-6.7,1.22ZM263.77,348.46c-.53-.62-.9-1.06-1.41-1.66,2.01-1.29,3.92-2.52,6.16-3.96.35.47.72.98,1.27,1.73-1.96,1.27-3.91,2.52-6.02,3.89ZM265.31,363.48c1.62-.91,3.17-1.89,4.83-2.64.49-.22,1.29.24,2.18.44-3.14,3.03-5.65,3.8-7.01,2.2ZM271.74,340.68c2.05-1.47,4.06-2.92,6.38-4.58.38.48.77.97,1.36,1.71-2.16,1.55-4.13,2.96-6.46,4.62-.4-.55-.77-1.06-1.28-1.75ZM281.2,356.22c-1.49.96-3.01,1.88-4.45,2.9-1.1.77-1.9.71-2.61-.69,1.73-1.12,3.44-2.33,5.27-3.32.42-.23,1.24.28,1.88.45-.03.22-.06.44-.09.66ZM281.39,333.68c2.18-1.71,4.27-3.35,6.44-5.06.49.55.91,1.03,1.46,1.64-2.16,1.69-4.21,3.3-6.44,5.05-.54-.6-.92-1.03-1.46-1.63ZM285.46,353.23c-.45.28-1.34-.15-2.02-.26.02-.23.05-.46.07-.69,1.97-1.4,3.94-2.8,5.98-4.26.48.42.91.79,1.54,1.35-1.94,1.37-3.69,2.73-5.57,3.86ZM291.18,325.91c2.27-1.93,4.33-3.68,6.6-5.62.47.51.89.98,1.49,1.63-2.17,1.84-4.21,3.58-6.49,5.52-.48-.46-.96-.92-1.6-1.53ZM294.47,346.8c-.47-.36-.95-.73-1.66-1.27,2.29-1.78,4.36-3.39,6.66-5.18.45.49.83.91,1.35,1.49-2.17,1.69-4.17,3.26-6.35,4.96ZM362.86,233.92c2.42,1.29,1.17,3.01.89,4.72-2.55-1.25-.83-3.05-.89-4.72ZM349.46,263.03c.53.57.95,1.03,1.5,1.62-1.4,2.03-2.73,3.95-4.17,6.04-.58-.49-1.04-.89-1.64-1.41,1.42-2.05,2.78-4.03,4.31-6.25ZM301.1,317.38c2.12-1.95,4.15-3.82,6.32-5.82.48.42.95.83,1.66,1.45-2.22,2.05-4.33,3.99-6.52,6.01-.51-.58-.94-1.06-1.46-1.64ZM304.15,339.09c-.5-.48-.91-.87-1.45-1.38,2.18-1.85,4.26-3.63,6.42-5.47.49.46.9.85,1.48,1.4-2.19,1.86-4.27,3.62-6.45,5.45ZM311.13,308.64c2.01-2,3.99-3.98,6.27-6.26.27.32.67.81,1.03,1.25-2.02,2.09-3.98,4.11-6.27,6.47-.4-.57-.76-1.08-1.03-1.46ZM313.97,330.69c-.51-.48-.95-.9-1.49-1.41,2.28-2.09,4.28-3.92,6.52-5.96.42.49.79.93,1.29,1.51-2.12,1.97-4.15,3.85-6.32,5.86ZM320.19,298.94c2.03-2.19,3.98-4.28,6.09-6.54.51.59.93,1.06,1.45,1.65-1.97,2.12-3.89,4.18-5.9,6.34-.56-.49-1.03-.91-1.64-1.45ZM323.41,321.79c-.42-.43-.83-.84-1.26-1.27,2.23-2.27,4.16-4.24,6.37-6.48.44.45.86.89,1.31,1.35-2.23,2.23-4.23,4.22-6.42,6.4ZM329.34,288.98c1.79-2.1,3.57-4.21,5.46-6.43.51.44.99.86,1.66,1.45-1.96,2.29-3.75,4.39-5.82,6.79-.48-.67-.85-1.19-1.3-1.81ZM332.92,312.32c-.49-.53-.87-.95-1.35-1.47,1.99-2.15,3.91-4.22,6.01-6.48.44.47.84.88,1.41,1.48-2.14,2.28-4.06,4.33-6.07,6.47ZM337.72,279c1.65-2.12,3.26-4.2,4.98-6.42.53.49.98.91,1.6,1.48-1.71,2.2-3.35,4.31-5.14,6.62-.55-.65-.96-1.13-1.44-1.68ZM341.87,302.61c-.51-.57-.89-1-1.34-1.51,1.83-2.15,3.61-4.24,5.56-6.53.5.57.83.96,1.32,1.53-1.83,2.15-3.64,4.28-5.54,6.51ZM350.2,292.7c-.54-.69-.9-1.14-1.26-1.61,1.66-2.13,3.26-4.18,4.98-6.38.5.58.87,1,1.32,1.51-1.66,2.14-3.27,4.21-5.04,6.48ZM352.96,261.55c-.6-.55-1.06-.98-1.58-1.46,1.1-1.84,2.15-3.58,3.33-5.55.61.57,1.02.96,1.58,1.49-1.1,1.82-2.17,3.59-3.33,5.52ZM356.98,250.26c.54-1.1,1.12-2.2,1.88-3.7,2.52,2.82-.62,4.31-.76,6.41-1.88-1.15-1.89-1.16-1.12-2.71ZM361.02,278.14c-1.13,1.47-2.13,3.02-3.21,4.57-1.39-.68-1.55-1.44-.61-2.62,1.15-1.44,2.13-3.02,3.25-4.62,1.31.8,1.39,1.6.57,2.67ZM361.35,245.39c-2.78-1.8.06-3.5-.15-5.59,2.12,1.46,2.09,2.01.15,5.59ZM363.88,273.5c-1.95-.95-1.49-1.18,1.99-6.55,1.48,1.57,1.29,2.15-1.99,6.55ZM368.48,265.32c-1.98-2.67,1.05-4.07,1.16-6.54,1.64,1.91,1.3,3.3-1.16,6.54ZM372.51,258.06c-2.47-2.35-.08-3.9.08-5.61,2.24,1.91-.12,3.4-.08,5.61ZM374.48,250.87c-.2-.01-.41-.02-.61-.03v-4.41c1.51,1.17,1.56,1.62.61,4.44Z"/>
    <path class="cls-2" d="M386.78,267.77v.03c-.22,1.67.02,3.36-.68,4.41-.93,1.4-.7,2.77-.91,4.17-.03.18-.19.5-.24.5-1.82-.37-.98,1.09-1.16,1.75-.23.86-.24,1.77-.36,2.72-.5-.23-.82-.38-1.22-.57-.33,1.83-.63,3.51-.95,5.3-.45-.25-.86-.48-1.34-.75-.48,1.98-.92,3.8-1.37,5.69-.56-.36-.93-.6-1.41-.91-.61,2.11-1.17,4.06-1.76,6.13-.52-.34-.94-.62-1.5-.98-.74,2.18-1.46,4.27-2.19,6.39-.62-.35-1.07-.59-1.62-.88-.87,2.26-1.69,4.4-2.51,6.56-.66-.3-1.17-.53-1.77-.8-.98,2.29-1.92,4.45-2.89,6.71-.65-.31-1.16-.55-1.81-.85-1.07,2.32-2.08,4.52-3.09,6.72-.8-.28-1.38-.48-2.01-.7-1.1,2.27-2.13,4.39-3.21,6.6-.72-.3-1.29-.55-1.98-.84-1.16,2.25-2.27,4.39-3.36,6.47-.87-.25-1.48-.42-2.13-.61-1.16,2.13-2.26,4.15-3.37,6.19-.83-.2-1.52-.36-2.25-.54-1.18,2.07-2.31,4.06-3.42,6-.75-.16-1.31-.29-1.87-.42.96-2.24,1.93-4.48,2.9-6.76,1.01.33,1.68.54,2.49.81,1.16-2.15,2.27-4.23,3.4-6.34.82.21,1.5.39,2.25.58,1.15-2.21,2.26-4.35,3.36-6.46.81.3,1.4.51,2.07.76,1.13-2.31,2.19-4.5,3.26-6.67.73.27,1.33.49,1.99.73,1.08-2.3,2.11-4.5,3.14-6.71.71.28,1.28.51,1.92.76,1.02-2.37,1.98-4.58,2.93-6.79.72.33,1.22.55,1.82.82.88-2.3,1.7-4.45,2.56-6.68.56.31,1.06.59,1.69.94.75-2.21,1.47-4.3,2.2-6.45.58.34,1,.58,1.58.92.63-2.12,1.19-4.06,1.8-6.13.51.28.93.51,1.5.82.49-2.02.94-3.86,1.38-5.73.54.25.96.44,1.44.66.34-1.83.65-3.5.97-5.21.48.21.8.36,1.29.59.2-1.67.39-3.16.57-4.66.47.07.84.13,1.35.21v-4.21c.43.09.75.16.99.21.18-2.17.65-4.34.49-6.41-.12-1.49-.57-2.93-1.7-4.28-.02-.03-.04-.05-.06-.07-.21,1.98-.43,3.93-.65,5.9-.13-.04-.43-.12-.88-.26v4.48c-.51-.23-.88-.38-1.34-.58-.14,1.72-.28,3.29-.43,5.01-.53-.27-.89-.44-1.42-.71-.29,1.89-.55,3.62-.84,5.5-.52-.3-.94-.54-1.51-.86-.44,2.03-.83,3.89-1.26,5.88-.59-.28-1.08-.51-1.65-.77-.58,2.14-1.11,4.14-1.68,6.24-.65-.41-1.08-.68-1.67-1.05-.73,2.29-1.41,4.46-2.12,6.67-.67-.38-1.16-.65-1.79-1-.85,2.35-1.66,4.57-2.5,6.87-.65-.33-1.21-.61-1.91-.98-.99,2.42-1.92,4.73-2.85,7.03-.79-.32-1.37-.56-2.08-.84-1.03,2.39-2.02,4.67-3.01,6.94-.85-.34-1.45-.57-2.14-.85-1.1,2.33-2.16,4.58-3.25,6.87-.81-.32-1.41-.56-2.13-.84-1.16,2.28-2.28,4.49-3.42,6.74-.85-.3-1.5-.54-2.25-.8-1.17,2.27-2.29,4.42-3.43,6.62-.83-.3-1.5-.54-2.3-.83-1.2,2.16-2.37,4.29-3.55,6.43-.86-.27-1.6-.51-2.38-.75-1.23,2.13-2.39,4.17-3.54,6.16-.94-.26-1.69-.47-2.46-.68-1.21,2.02-2.35,3.94-3.51,5.89-.89-.24-1.68-.47-2.52-.7-1.19,1.95-2.33,3.79-3.5,5.69-.93-.3-1.73-.57-2.53-.82-1.12,1.82-2.25,3.64-3.5,5.66-2.4-1.9-3.22-.02-4.17,1.61-.49.84-1.05,1.65-1.63,2.57-.91-.24-1.76-.47-2.62-.71-.54.79-1.21,1.52-1.6,2.38-.94,2.11-2.32,2.72-4.37,1.6-.55.88-1.14,1.73-1.65,2.63-.71,1.24-1.45,2.18-3.13,1.36-.33-.17-1.19.31-1.54.71-.76.9-1.35,1.95-2.15,3.14-3.3-2.25-3.78,1.12-5.31,2.74-.85-.24-1.72-.48-2.72-.76-.37.51-.83,1-1.13,1.57-.66,1.3-1.47,1.88-2.97,1.13-.37-.18-1.19.15-1.58.5-.57.51-.93,1.26-1.44,1.98-1.65-.83-3.16-1.26-4.14.85-.1.22-.92.19-1.38.13-.63-.08-1.23-.3-1.84-.47-.86,2.56-2.57.95-3.98.78-.25.48-.49.96-.66,1.32.04.05.08.11.13.16.85,1.04,1.86,1.28,2.9,1.29,1.34,0,2.75-.37,3.99.09.08.04.29-.06.33-.16.94-1.87,2.23-.83,3.46-.46.03,1.53-.74,1.77-2.01,1.26-.88-.35-1.81-.71-1.88.8v.04c28.34,11.35,69.71,8.04,99.28-21.45,29.95-29.88,32.2-70.79,22.61-96.63ZM274.33,382.77c-.56-.21-1.62.9-2.82,1.63-.56-.13-1.61-.39-2.67-.64.31-.32.74-.58.92-.96.52-1.08,1.23-1.11,2.27-.81.56.16,1.67.06,1.82-.26,1.01-2.19,2.51-1.82,4.16-1.05-.76,1.48-1.41,2.93-3.68,2.09ZM280.99,381.3c-1.03-.22-1.96-.43-2.89-.63.32-.48.71-.92.95-1.44.93-1.98,2.25-1.72,3.88-.66-.67.95-1.31,1.84-1.94,2.73ZM287.17,377.25c-.92,1.83-2.14,2.09-3.93.8.73-1.06,1.45-2.12,2.19-3.21,1.1.28,2.1.53,3.1.78-.47.54-1.06,1.01-1.36,1.63ZM292.4,374.28c-.81,1.87-2.09,2.21-3.81,1.35.72-1.34,1.43-2.67,2.13-3.98,1.12.27,1.98.48,2.83.69-.39.64-.86,1.25-1.15,1.94ZM296.68,372.36c-.57.48-1.95.02-3.01-.06.39-.57.83-1.12,1.12-1.74.9-1.93,2.2-2.81,4.28-1.87-.76,1.26-1.32,2.76-2.39,3.67ZM319.37,356.11c-.21.32-.97.63-1.26.49-1.42-.69-2.05.07-2.65,1.16-.48.87-.94,1.79-1.62,2.49-.44.46-1.35.91-1.87.75-1.07-.31-1.6.01-2.09.86-.46.81-1.03,1.54-1.47,2.36-.53.98-1.08,1.51-2.36,1.1-.5-.16-1.35.37-1.89.78-.45.34-.75.93-.99,1.46-.9,2.07-2.29,2.18-4,1.14.52-.76,1.14-1.46,1.53-2.28.87-1.81,2.03-2.69,4.1-1.45.85-1.33,1.66-2.52,2.4-3.76.53-.9,1.05-1.36,2.23-.99.51.16,1.49-.25,1.86-.72,1.01-1.29,1.81-2.75,2.7-4.16.86.25,1.61.47,2.48.72,1.16-1.86,2.3-3.7,3.49-5.61.8.3,1.46.54,2.36.87-1.03,1.7-1.93,3.28-2.95,4.79ZM331.56,345.31c-.61.95-1.01,2.03-2.55,1.28-.29-.14-1.15.41-1.45.84-.99,1.46-1.85,3.02-2.83,4.64-.75-.25-1.4-.47-2.36-.79,1.21-2.05,2.32-3.94,3.46-5.88.8.24,1.47.44,2.35.7.78-1.3,1.59-2.63,2.37-3.98q1.38-2.38,3.81-.86c-.94,1.35-1.91,2.67-2.8,4.05Z"/>
    <g>
      <path class="cls-1" d="M299.15,368.72s.01-.02.02-.02c-.03-.02-.05-.03-.08-.05l.06.07Z"/>
      <path class="cls-1" d="M334.36,341.27s.01,0,.02.01c0,.01,0-.02,0-.02,0,0,0,0,0,.01Z"/>
      <path class="cls-1" d="M268.82,383.77s0,0,.01-.01c-.02,0-.03,0-.05-.01,0,0,.04.03.04.02Z"/>
      <path class="cls-1" d="M278.01,380.68s.04.02.06.03l-.05-.06s0,.02-.01.03Z"/>
      <path class="cls-1" d="M293.64,372.36s.02-.04.04-.05c-.03,0-.06,0-.09,0,0,0,.06.06.06.06Z"/>
      <path class="cls-1" d="M299.15,368.73s-.06-.07-.06-.07c0,.01-.01.02-.02.04.03.01.05.02.08.03Z"/>
      <path class="cls-1" d="M293.64,372.36s-.06-.06-.06-.06c0,.01-.02.03-.03.04.03,0,.06.01.08.02Z"/>
      <path class="cls-1" d="M288.53,375.62s.04,0,.06.01c0,0,0,0,0,0,0,0,0,0,0-.01-.02,0-.03-.02-.05-.02,0,0-.01.01-.02.02Z"/>
      <path class="cls-1" d="M278.07,380.71s.02-.03.03-.04c-.03,0-.05-.01-.08-.02,0,0,.05.06.05.06Z"/>
    </g>
  </g>
  <g>
    <path class="cls-1" d="M110,215.9c-4.12.55-7.51-.53-10.18-3.25-2.67-2.74-4-6.42-4-11.01v-68.25c0-4.68,1.33-8.56,4-11.61,2.67-3.03,6.06-4.54,10.18-4.54h72.19c4.12,0,7.51,1.33,10.18,3.98,2.67,2.63,4,5.96,4,10.02v24.1l-41.43,2.42v-12.94c0-2.41-.77-4.12-2.32-5.1-1.54-.99-3.68-1.45-6.39-1.37s-4.68.65-6.18,1.71c-1.5,1.06-2.25,2.84-2.25,5.31v38.46c0,2.48.79,4.16,2.39,5.06,1.59.89,3.7,1.2,6.32.93s4.68-.98,6.18-2.13c1.5-1.14,2.25-2.92,2.25-5.34v-12.94l41.43-3.11v24.1c0,3.98-1.33,7.47-4,10.49-2.67,3.04-6.06,4.85-10.18,5.4l-72.19,9.64Z"/>
    <path class="cls-1" d="M205.22,203.19v-85.95h85.67c4.12,0,7.51,1.11,10.18,3.32,2.67,2.19,4,4.96,4,8.34v27.89c0,3.31-1.33,6.2-4,8.67-2.67,2.49-6.06,3.94-10.18,4.33l-44.1,4.15v23.69l-41.57,5.55ZM256.48,155.25c2.43-.16,4.12-1.16,5.06-3.01.94-1.84,1.4-4.33,1.4-7.46s-.47-5.37-1.4-7.16c-.94-1.8-2.62-2.66-5.06-2.59l-9.69.29v20.55l9.69-.62ZM262.38,195.56l-11.94-26.2,42.41-3.69,13.2,24.06-43.68,5.83Z"/>
    <path class="cls-1" d="M313.64,188.72v-71.48h42.41v65.82l-42.41,5.66Z"/>
    <path class="cls-1" d="M379.51,179.93c-4.12.55-7.51.02-10.18-1.59-2.67-1.64-4-3.94-4-6.89v-43.84c0-3.01,1.33-5.5,4-7.47,2.67-1.94,6.06-2.91,10.18-2.91h72.19c4.12,0,7.51.79,10.18,2.35,2.67,1.54,4,3.49,4,5.87v14.15l-41.43,2.42v-7.92c0-1.48-.77-2.51-2.32-3.09-1.54-.59-3.68-.85-6.39-.76s-4.68.45-6.18,1.13c-1.5.68-2.25,1.79-2.25,3.33v23.89c0,1.54.79,2.56,2.39,3.05,1.59.49,3.7.6,6.32.33s4.68-.79,6.18-1.55c1.5-.76,2.25-1.88,2.25-3.35v-7.92l41.43-3.11v14.15c0,2.33-1.33,4.45-4,6.37-2.67,1.94-6.06,3.19-10.18,3.74l-72.19,9.64Z"/>
  </g>
  <g>
    <path class="cls-1" d="M141,474.91c-3.58,0-6.53-.69-8.84-2.07-2.32-1.36-3.48-3.05-3.48-5.08v-6.91l36.11-1.33v2.04c0,1.18.53,2.1,1.59,2.75,1.06.66,2.85.96,5.37.9s4.35-.45,5.25-1.17c.89-.72,1.34-1.6,1.34-2.63,0-1.22-.47-2.1-1.4-2.65-.94-.55-2.7-.88-5.31-1.01l-30.38-1.28c-3.74-.16-6.75-.85-9.03-2.06-2.28-1.19-3.42-2.88-3.42-5.08v-11.83c0-2.07,1.16-3.91,3.48-5.52,2.32-1.63,5.26-2.65,8.84-3.07l60.99-7.09c3.58-.42,6.53.06,8.84,1.43,2.32,1.39,3.48,3.36,3.48,5.9v8.45l-35.99,2.86v-2.11c0-1.22-.51-2.13-1.52-2.74-1.02-.61-2.83-.79-5.43-.54s-4.25.71-5.18,1.41c-.94.7-1.4,1.52-1.4,2.48s.45,1.72,1.34,2.17c.89.45,2.68.69,5.37.71l30.38.53c3.82.08,6.85.89,9.09,2.45,2.24,1.58,3.35,3.79,3.35,6.64v14.7c0,2.49-1.16,4.58-3.48,6.26-2.32,1.67-5.27,2.49-8.84,2.49h-61.12Z"/>
    <path class="cls-1" d="M221.76,474.91v-55.37l33.55-3.9,13.66,9.89,9.64,7.31.61-.05v-19.93l28.3-3.29v65.34h-31.11l-15.37-13.14-10.49-8.59-.61.03v21.71h-28.18Z"/>
    <path class="cls-1" d="M310.69,474.91l22.69-68.35,52.09-6.06,22.69,74.41h-38.91l-3.54-11.58-20.98.39-3.66,11.19h-30.38ZM349.11,447.66l12.32-.56-5.73-19.16-.61.05-5.98,19.67Z"/>
    <path class="cls-1" d="M411.33,474.91v-77.41l73.07-8.5c3.58-.42,6.53.55,8.84,2.92,2.32,2.38,3.48,5.61,3.48,9.68v39.04c0,3.99-1.16,7.36-3.48,10.12-2.32,2.74-5.27,4.15-8.84,4.25l-36.6.99v18.93h-36.47ZM447.8,437.04l7.2-.39c2.28-.12,3.88-1.29,4.82-3.51.93-2.22,1.4-5.39,1.4-9.5s-.45-7.21-1.34-9.3c-.9-2.09-2.52-3.02-4.88-2.81l-7.2.64v24.86Z"/>
  </g>
</svg>